Coordinates
version=1
nRows=30
nColumns=33
inDegrees=yes

Units are S.I. units (second, meters, Newtons, ...)
Angles are in degrees.

endheader
time	ground_thorax_rot_x	ground_thorax_rot_y	ground_thorax_rot_z	ground_thorax_tx	ground_thorax_ty	ground_thorax_tz	clav_prot_r	clav_elev_r	scapula_abduction_r	scapula_elevation_r	scapula_upward_rot_r	scapula_winging_r	shoulder_elv_r	plane_of_elev_r	axial_rot_r	elbow_flexion_r	pro_sup_r	wrist_flex_r	wrist_dev_r	clav_prot_l	clav_elev_l	scapula_abduction_l	scapula_elevation_l	scapula_upward_rot_l	scapula_winging_l	shoulder_elv_l	plane_of_elev_l	axial_rot_l	elbow_flexion_l	pro_sup_l	wrist_flex_l	wrist_dev_l	
6.5700	-3.840393	7.363705	9.859381	-0.101551	1.026286	0.012369	16.842171	-10.227645	44.998355	-11.873981	27.024035	-14.417879	-1.981467	-53.672712	120.155932	-36.575234	-125.179724	-1.578963	13.879909	24.614466	-10.161921	-37.137668	-5.231438	-21.730967	12.663686	57.875281	1.249432	8.669221	20.096829	17.145352	19.693076	-3.566707	
6.5800	-3.860775	7.257222	9.934766	-0.100328	1.026303	0.012402	16.807533	-10.092369	44.997258	-11.778105	27.089901	-14.481645	-2.519912	-53.619701	119.857803	-36.011245	-126.172343	-0.573077	11.073248	24.189332	-10.025786	-36.438501	-5.400496	-21.796167	12.271372	57.855033	1.844950	8.938012	19.199419	18.002412	19.333671	-4.476327	
6.5900	-3.865318	7.139183	9.970627	-0.099046	1.026272	0.012438	16.787553	-9.940961	44.995055	-11.659717	27.119824	-14.560008	-3.056198	-53.539886	119.483162	-35.520213	-127.279393	0.502054	8.133808	23.727242	-9.851114	-35.681346	-5.602335	-21.856658	11.853200	57.824761	2.495874	9.279372	18.325918	18.874432	18.942254	-5.440281	
6.6000	-3.832155	7.044045	9.944748	-0.098138	1.026310	0.012515	16.764349	-9.816604	44.993289	-11.566207	27.159697	-14.622515	-3.367422	-53.554929	119.304466	-35.202499	-128.391229	1.177245	6.541343	23.494820	-9.840728	-35.296739	-5.621732	-21.852713	11.624289	57.825387	2.871831	9.554945	17.637919	19.433551	18.689260	-5.996251	
6.6100	-3.777752	6.944685	9.886139	-0.097453	1.026344	0.012618	16.754571	-9.707448	44.992225	-11.478142	27.171469	-14.682028	-3.559333	-53.614295	119.203970	-35.020469	-129.600199	1.652932	5.673688	23.373885	-9.895670	-35.093830	-5.565962	-21.819830	11.490711	57.836525	3.101089	9.817180	17.077780	19.811570	18.503721	-6.344177	
6.6200	-3.706712	6.836207	9.803182	-0.096986	1.026364	0.012748	16.762726	-9.613612	44.992729	-11.393364	27.146317	-14.740099	-3.651867	-53.709404	119.160774	-34.964875	-130.918114	1.960948	5.415300	23.342686	-10.000809	-35.037531	-5.451070	-21.762356	11.434797	57.858968	3.203267	10.066719	16.624533	20.031425	18.376488	-6.517108	
6.6300	-3.643640	6.704252	9.737982	-0.096685	1.026339	0.012885	16.806871	-9.551311	44.993553	-11.314935	27.042851	-14.794054	-3.705965	-53.813880	119.121471	-35.014866	-132.380431	2.173243	5.466139	23.338301	-10.105157	-35.025687	-5.335823	-21.705900	11.405822	57.885038	3.225023	10.276535	16.250367	20.137266	18.294963	-6.602593	
6.6400	-3.588538	6.545236	9.689951	-0.096486	1.026264	0.013024	16.879492	-9.505717	44.995229	-11.234622	26.877605	-14.849431	-3.765041	-53.911614	119.054525	-35.135938	-133.982199	2.376553	5.550339	23.316912	-10.184014	-34.987073	-5.247163	-21.658059	11.366368	57.913935	3.226180	10.470701	15.908745	20.198239	18.225189	-6.683850	
6.6500	-3.548643	6.361132	9.664678	-0.096404	1.026167	0.013163	16.978701	-9.486925	44.996004	-11.161409	26.652823	-14.899526	-3.826646	-53.992866	118.967612	-35.326592	-135.564106	2.532996	5.658905	23.281581	-10.248198	-34.926204	-5.174486	-21.616195	11.316837	57.954005	3.192610	10.609560	15.592392	20.200098	18.183764	-6.735567	
6.6600	-3.513092	6.156884	9.638354	-0.096425	1.026063	0.013303	17.082603	-9.475905	44.995234	-11.091341	26.415436	-14.946535	-3.885176	-54.058168	118.879517	-35.571447	-136.977521	2.642029	5.770187	23.239046	-10.308746	-34.853825	-5.105149	-21.574137	11.261612	58.011704	3.132978	10.704687	15.304677	20.157907	18.158728	-6.755284	
6.6700	-3.481812	5.933301	9.616887	-0.096531	1.025954	0.013442	17.189977	-9.467355	44.991500	-11.020053	26.165536	-14.992833	-3.954731	-54.110834	118.802281	-35.884788	-138.262714	2.714316	5.890722	23.186329	-10.370121	-34.764080	-5.037468	-21.536051	11.195719	58.085436	3.044063	10.762578	15.048543	20.072085	18.143685	-6.748400	
6.6800	-3.436295	5.689094	9.600319	-0.096699	1.025836	0.013578	17.284609	-9.442641	44.984668	-10.940756	25.938020	-15.042544	-4.043395	-54.179249	118.770774	-36.249434	-139.553740	2.774324	6.038487	23.117496	-10.443162	-34.644753	-4.967506	-21.513176	11.108467	58.169835	2.932305	10.799392	14.829880	19.953826	18.111502	-6.736033	
6.6900	-3.380227	5.427436	9.592313	-0.096926	1.025720	0.013710	17.369836	-9.408968	44.972833	-10.857102	25.723207	-15.092239	-4.148322	-54.257924	118.781172	-36.667479	-140.844321	2.826468	6.201385	23.033786	-10.526358	-34.498256	-4.895790	-21.503977	11.001783	58.261479	2.801177	10.818662	14.639579	19.811322	18.064010	-6.718197	
6.7000	-3.314527	5.151537	9.599822	-0.097204	1.025598	0.013824	17.444605	-9.375297	44.950509	-10.775311	25.516234	-15.134761	-4.262055	-54.356586	118.841674	-37.137716	-142.112924	2.876099	6.367737	22.933552	-10.611568	-34.321988	-4.832139	-21.514716	10.875847	58.351900	2.657408	10.819830	14.491665	19.652345	17.999626	-6.698660	
6.7100	-3.252232	4.868862	9.624273	-0.097533	1.025474	0.013920	17.514593	-9.350512	44.913657	-10.698402	25.299294	-15.166323	-4.383534	-54.460375	118.936806	-37.659515	-143.339439	2.942676	6.514171	22.824750	-10.689689	-34.130863	-4.780677	-21.538063	10.742224	58.438348	2.509311	10.828296	14.368197	19.500183	17.924144	-6.681541	
6.7200	-3.185857	4.576955	9.669931	-0.097904	1.025366	0.013983	17.582730	-9.350808	44.858380	-10.636764	25.061104	-15.177845	-4.490303	-54.587254	119.087495	-38.234396	-144.587461	3.024223	6.645444	22.694600	-10.769283	-33.901827	-4.738675	-21.583051	10.584743	58.522045	2.359421	10.837353	14.268729	19.355976	17.822602	-6.665231	
6.7300	-3.126069	4.284575	9.720831	-0.098321	1.025277	0.014024	17.638044	-9.365380	44.780331	-10.586362	24.819795	-15.170058	-4.582597	-54.705041	119.269054	-38.830274	-145.656926	3.121120	6.726131	22.561743	-10.842319	-33.668329	-4.705318	-21.634589	10.426338	58.605679	2.215315	10.873781	14.182880	19.245473	17.705973	-6.645872	
6.7400	-3.067013	3.995916	9.785638	-0.098765	1.025195	0.014046	17.675527	-9.384680	44.669532	-10.538375	24.571503	-15.143654	-4.673435	-54.818822	119.476083	-39.453147	-146.563918	3.235607	6.768007	22.424701	-10.911123	-33.427171	-4.680983	-21.697677	10.264214	58.680719	2.075329	10.942431	14.119802	19.165771	17.577416	-6.627766	
6.7500	-3.015321	3.721111	9.864527	-0.099240	1.025097	0.014063	17.681446	-9.384328	44.520380	-10.478420	24.337863	-15.105582	-4.789750	-54.908655	119.677393	-40.072185	-147.210220	3.366298	6.777902	22.301314	-10.967031	-33.209513	-4.669992	-21.766945	10.119247	58.741294	1.938368	11.051173	14.086882	19.123825	17.457035	-6.616604	
6.7600	-2.955885	3.462523	9.965287	-0.099728	1.024981	0.014070	17.661188	-9.365980	44.331616	-10.404150	24.104887	-15.056477	-4.931529	-54.998389	119.873454	-40.704149	-147.778772	3.509466	6.798034	22.177998	-11.023990	-32.990409	-4.665411	-21.852066	9.972565	58.784114	1.803225	11.183437	14.090594	19.099798	17.339314	-6.617535	
6.7700	-2.894819	3.228027	10.074724	-0.100237	1.024842	0.014073	17.607633	-9.319396	44.107001	-10.312621	23.893842	-15.000358	-5.103657	-55.070981	120.035106	-41.318892	-148.165556	3.661076	6.818653	22.071446	-11.071500	-32.799612	-4.671589	-21.944386	9.844821	58.808671	1.676894	11.343848	14.137246	19.104363	17.238598	-6.633273	
6.7800	-2.828562	3.018931	10.189954	-0.100753	1.024684	0.014064	17.529515	-9.254534	43.849438	-10.208029	23.689734	-14.935786	-5.296775	-55.139478	120.162908	-41.937742	-148.418940	3.822945	6.840265	21.974192	-11.114248	-32.624007	-4.685955	-22.046450	9.726901	58.819244	1.560477	11.531896	14.230287	19.138020	17.145941	-6.664304	
6.7900	-2.764274	2.835031	10.303586	-0.101299	1.024524	0.014033	17.435226	-9.182800	43.576038	-10.101363	23.499378	-14.864384	-5.495285	-55.204565	120.255687	-42.528942	-148.565753	3.983860	6.866752	21.887655	-11.150404	-32.466486	-4.708382	-22.154626	9.621119	58.825288	1.455082	11.730126	14.363839	19.200635	17.059640	-6.709954	
6.8000	-2.696087	2.665072	10.419155	-0.101846	1.024374	0.013975	17.333863	-9.123791	43.283647	-10.002460	23.298715	-14.777653	-5.686416	-55.285454	120.336399	-43.128790	-148.735759	4.145969	6.912385	21.791553	-11.188191	-32.291244	-4.739319	-22.283351	9.503886	58.837681	1.351414	11.932028	14.549567	19.291129	16.957152	-6.774371	
6.8100	-2.628824	2.507243	10.531753	-0.102389	1.024240	0.013892	17.225355	-9.080434	42.973128	-9.914132	23.089399	-14.674298	-5.870207	-55.377795	120.403305	-43.733641	-148.937719	4.304816	6.976702	21.685645	-11.223746	-32.098428	-4.781853	-22.432000	9.376356	58.862430	1.246527	12.134128	14.792245	19.415544	16.837709	-6.862580	
6.8200	-2.562405	2.357369	10.644148	-0.102907	1.024116	0.013793	17.106528	-9.051997	42.633863	-9.833601	22.862920	-14.550718	-6.057407	-55.481828	120.459003	-44.370170	-149.185885	4.464261	7.058775	21.565809	-11.254895	-31.881162	-4.840078	-22.604972	9.234992	58.901035	1.132633	12.341592	15.102683	19.580054	16.698433	-6.981645	
6.8300	-2.502498	2.217457	10.751099	-0.103420	1.024009	0.013670	16.982470	-9.040920	42.277969	-9.764338	22.625420	-14.411034	-6.243369	-55.594574	120.500422	-45.017553	-149.480300	4.615970	7.151802	21.437015	-11.277656	-31.648995	-4.913016	-22.793058	9.086737	58.953709	1.011112	12.539843	15.471487	19.780885	16.546175	-7.131701	
6.8400	-2.450245	2.083594	10.854223	-0.103924	1.023907	0.013534	16.853410	-9.042178	41.904043	-9.701301	22.373776	-14.257687	-6.440519	-55.713989	120.528989	-45.694164	-149.818739	4.764181	7.248399	21.300127	-11.288007	-31.404006	-5.003153	-22.994150	8.933860	59.018112	0.873581	12.730735	15.902817	20.008551	16.384323	-7.313169	
6.8500	-2.406845	1.959807	10.949826	-0.104436	1.023816	0.013377	16.724075	-9.054547	41.523976	-9.644959	22.114369	-14.096487	-6.645188	-55.839530	120.537029	-46.379420	-150.189637	4.903533	7.338026	21.160841	-11.283267	-31.156726	-5.108616	-23.199588	8.783503	59.087382	0.722946	12.902672	16.392647	20.248336	16.221674	-7.522362	
6.8600	-2.372222	1.845847	11.040099	-0.104957	1.023732	0.013203	16.594263	-9.076768	41.136534	-9.593792	21.845636	-13.927717	-6.866321	-55.972234	120.519587	-47.080087	-150.589967	5.036088	7.412515	21.020360	-11.262227	-30.909488	-5.229547	-23.407476	8.637359	59.157127	0.553503	13.053684	16.946377	20.490786	16.061830	-7.759021	
